<svg width="2545" height="195" viewBox="0 0 2545 195" fill="none" xmlns="http://www.w3.org/2000/svg">
<path fill-rule="evenodd" clip-rule="evenodd" d="M80.404 72.3298C99.4947 65.7496 102.744 48.6085 100.307 32.8485C100.307 32.2798 100.795 31.8736 101.282 32.0361C119.56 40.9722 140.113 60.4692 140.113 89.7146C140.113 112.136 122.729 131.958 97.4638 131.958C88.4486 132.368 79.5536 129.764 72.1827 124.557C64.8118 119.35 59.3848 111.837 56.7583 103.203C54.1318 94.569 54.4554 85.3063 57.678 76.8768C60.9006 68.4472 66.8386 61.3309 74.5549 56.651C75.0423 56.3261 75.6922 56.651 75.6922 57.2197C75.9359 60.2255 76.7483 67.7805 80.079 72.3298H80.404V72.3298Z" fill="#A0AEC0"/>
<path fill-rule="evenodd" clip-rule="evenodd" d="M193.893 114.167L195.274 112.542L199.579 126.19L199.01 126.759C195.761 129.765 190.887 131.308 184.631 131.308H184.388C178.701 131.308 174.233 129.683 171.146 126.678C168.059 123.591 166.434 118.96 166.434 113.111V75.9043H155.467V60.8754H166.434V42.7594H183.332V60.8754H196.736V75.9043H183.25V109.455C183.25 110.999 183.657 115.954 188.368 115.954C190.806 115.954 193.08 115.061 193.893 114.086V114.167ZM202.829 129.765V60.9566H219.726V129.765H202.829V129.765ZM211.196 32.8485C213.201 32.8485 215.161 33.4421 216.829 34.5544C218.497 35.6666 219.799 37.2478 220.57 39.0986C221.341 40.9494 221.546 42.987 221.161 44.9545C220.776 46.9221 219.817 48.7316 218.405 50.1549C216.993 51.5783 215.191 52.5517 213.226 52.9527C211.262 53.3536 209.223 53.1641 207.366 52.408C205.509 51.6518 203.918 50.3629 202.792 48.7037C201.667 47.0445 201.057 45.0892 201.041 43.0844C201.041 37.5602 205.672 32.8485 211.196 32.8485ZM265.138 59.2506C279.76 59.2506 287.803 67.2119 287.803 81.7534V129.683H270.906V85.8152C270.581 78.0164 266.844 74.442 258.882 74.442C251.734 74.442 245.966 78.8288 243.041 82.5657V129.683H226.144V61.0378H243.041V68.3492C247.915 63.6374 255.714 59.4131 265.138 59.4131V59.2506ZM344.019 68.1055V35.773H360.917V129.846H344.019V122.697C341.434 125.424 338.323 127.6 334.875 129.094C331.426 130.588 327.711 131.368 323.954 131.389C305.513 131.389 293.165 116.929 293.165 95.4012C293.165 73.7921 305.513 59.3319 323.954 59.3319C327.72 59.349 331.442 60.1362 334.893 61.645C338.344 63.1538 341.449 65.3523 344.019 68.1055ZM344.019 82.647C342.136 80.1943 339.73 78.1925 336.975 76.7871C334.221 75.3818 331.188 74.6084 328.097 74.5232C317.617 74.5232 310.631 82.8907 310.631 95.4012C310.631 107.831 317.617 116.198 328.097 116.198C334.189 116.198 340.851 112.949 344.019 108.237V82.647ZM400.398 59.3319C420.382 59.3319 434.274 74.767 434.274 96.701V101.332H383.176C384.882 110.999 392.518 117.173 402.916 117.173C409.497 117.173 416.727 114.33 420.87 110.186L422.007 109.212L430.05 120.747L429.237 121.478C421.625 128.228 411.701 131.778 401.535 131.389C380.414 131.389 365.547 116.523 365.547 95.32C365.383 90.6388 366.166 85.9726 367.85 81.6017C369.534 77.2307 372.084 73.2451 375.346 69.8839C378.609 66.5228 382.517 63.8556 386.835 62.0423C391.154 60.229 395.795 59.3071 400.479 59.3319H400.398ZM383.094 88.5773H417.783C416.808 78.2602 408.278 73.5484 400.398 73.5484C388.537 73.5484 384.069 82.4845 383.094 88.6585V88.5773ZM475.136 59.3319H476.355V76.3917L474.893 76.148C473.674 75.9043 472.131 75.7418 470.587 75.7418C465.144 75.7418 457.589 79.56 454.746 83.6218V129.683H437.848V60.9566H454.827V68.5929C460.432 62.7438 467.825 59.3319 475.136 59.3319V59.3319Z" fill="#A0AEC0"/>
<path d="M550.314 64.0832C547.173 64.0832 544.66 66.599 544.66 69.7438C544.66 72.8886 547.173 75.4044 550.314 75.4044H574.817C577.958 75.4044 580.471 72.8886 580.471 69.7438C580.471 66.599 577.958 64.0832 574.817 64.0832H550.314ZM569.476 113.142C572.618 113.142 575.131 110.626 575.131 107.481C575.131 104.336 572.618 101.821 569.476 101.821H555.969C552.827 101.821 550.314 104.336 550.314 107.481C550.314 110.626 552.827 113.142 555.969 113.142H569.476ZM584.869 94.2731C588.011 93.9586 590.209 91.4428 589.895 88.298C589.581 85.4677 587.382 83.2663 584.869 83.2663H540.262C538.691 83.2663 537.435 83.8953 536.178 84.8387C535.55 85.4677 535.236 86.0966 534.922 86.7256C534.293 87.9835 534.293 89.5559 534.922 91.1283C535.236 91.7572 535.55 92.3862 536.178 93.0152C537.12 93.9586 538.691 94.5875 540.262 94.5875C540.262 94.2731 584.869 94.2731 584.869 94.2731ZM612.513 85.4677C613.77 87.3546 613.77 89.8704 612.513 92.0717L590.524 130.438C589.895 131.381 589.267 132.325 588.011 132.954C587.068 133.583 586.126 133.897 584.869 133.897H540.576C539.319 133.897 538.377 133.583 537.435 132.954C536.492 132.325 535.55 131.696 534.922 130.438L512.932 92.0717C511.675 90.1848 511.675 87.669 512.932 85.4677L534.922 47.1014C535.55 46.158 536.178 45.2145 537.435 44.5856C538.377 43.9566 539.319 43.6422 540.576 43.6422H584.869C587.068 43.6422 589.267 44.9001 590.524 46.7869L612.513 85.4677ZM675.654 83.2663C666.545 83.2663 656.492 87.669 656.492 101.192C656.492 114.714 666.545 119.117 675.654 119.117C685.079 119.431 692.932 112.198 693.56 102.764C693.56 102.135 693.56 101.506 693.56 101.192C693.56 99.9337 693.56 98.6758 693.246 97.7323C692.932 96.4744 692.618 95.531 692.304 94.2731C691.99 93.3296 691.361 92.0717 690.733 91.1283C690.105 90.1849 689.476 89.2414 688.534 88.298C687.592 87.3546 686.649 86.7256 685.707 86.0966C684.764 85.4677 683.822 84.8387 682.566 84.5243C681.309 84.2098 680.367 83.8953 679.11 83.5808C678.168 83.2663 676.911 82.9519 675.654 83.2663ZM676.911 131.696C673.141 132.01 669.058 131.067 665.602 129.495C662.147 127.922 659.005 125.721 656.492 122.576V123.519C656.178 127.293 653.037 130.124 649.267 129.809C645.812 129.495 643.298 126.979 642.984 123.519V50.5607C642.984 49.6172 643.298 48.9883 643.613 48.0448C643.927 47.1014 644.555 46.4725 645.183 45.8435C645.812 45.2145 646.44 44.5856 647.382 44.2711C648.325 43.9566 648.953 43.6422 649.895 43.6422C650.838 43.6422 651.466 43.9566 652.408 44.2711C653.351 44.5856 653.979 45.2145 654.607 45.8435C655.236 46.4725 655.864 47.1014 656.178 48.0448C656.492 48.9883 656.806 49.6172 656.806 50.5607V78.2347C661.832 72.2596 669.372 69.1149 677.225 69.4293C692.618 69.4293 706.126 82.0084 706.126 100.563C706.126 119.117 692.304 131.696 676.911 131.696ZM759.529 125.092C754.503 130.438 751.361 132.01 740.681 132.01C726.545 132.01 717.12 122.891 717.12 107.796V77.6057C717.12 76.6623 717.435 76.0334 717.749 75.0899C718.063 74.1465 718.691 73.5175 719.319 72.8886C721.518 70.3728 725.602 70.0583 728.115 72.5741L728.429 72.8886C729.058 73.5175 729.686 74.1465 730 75.0899C730.314 76.0334 730.628 76.6623 730.628 77.6057V105.28C730.628 115.029 735.026 120.06 743.822 120.06C751.047 120.06 756.702 118.802 759.843 110.311C759.843 110.311 759.843 104.651 759.843 99.6192V77.6057C759.843 76.6623 760.157 76.0334 760.471 75.0899C760.785 74.1465 761.414 73.5175 762.042 72.8886C762.67 72.2596 763.298 71.6307 764.241 71.3162C765.183 71.0017 765.812 70.6872 766.754 70.6872C767.696 70.6872 768.325 71.0017 769.267 71.3162C769.895 71.6307 770.838 72.2596 771.466 72.8886C772.723 74.1465 773.351 75.7189 773.665 77.6057V125.092C773.351 128.866 769.895 131.381 766.44 131.067C762.356 130.752 759.843 128.237 759.529 125.092ZM882.356 124.463C882.356 125.406 882.042 126.035 881.728 126.979C881.414 127.922 880.785 128.551 880.157 129.18C879.529 129.809 878.901 130.438 877.958 130.752C876.387 131.696 874.503 131.696 872.932 130.752C871.99 130.438 871.361 129.809 870.733 129.18C870.105 128.551 869.476 127.922 869.162 126.979C868.848 126.035 868.534 125.406 868.534 124.463V96.1599C869.162 89.2414 863.822 83.2663 856.911 82.6374C856.283 82.6374 855.654 82.6374 855.026 82.6374C845.288 82.6374 841.518 88.9269 841.518 102.135V124.777C841.518 125.721 841.204 126.35 840.89 127.293C840.576 128.237 839.948 128.866 839.319 129.495C838.691 130.124 838.063 130.752 837.12 131.067C835.55 132.01 833.665 132.01 832.094 131.067C831.152 130.752 830.524 130.124 829.895 129.495C829.267 128.866 828.639 128.237 828.325 127.293C828.011 126.35 827.696 125.721 827.696 124.777V96.4744C827.696 87.669 822.984 82.3229 815.445 82.3229C806.021 82.3229 800.995 89.2414 800.995 102.135V124.777C800.995 125.721 800.681 126.35 800.367 127.293C800.052 128.237 799.424 128.866 798.796 129.495C798.168 130.124 797.539 130.752 796.597 131.067C795.026 132.01 793.141 132.01 791.571 131.067C790.628 130.752 790 130.124 789.372 129.495C788.744 128.866 788.115 128.237 787.801 127.293C787.487 126.35 787.173 125.721 787.173 124.777V77.2913C787.173 76.3478 787.487 75.7189 787.801 74.7754C788.115 73.832 788.744 73.2031 789.372 72.5741C790 71.9452 790.628 71.6307 791.571 71.0017C792.513 70.6872 793.141 70.3728 794.084 70.3728C795.026 70.3728 795.654 70.6872 796.597 71.0017C798.168 71.6307 799.424 72.8886 800.052 74.461C800.367 75.0899 800.681 76.0334 800.681 76.9768C805.079 71.6307 811.675 68.4859 818.586 69.1148C826.126 68.8004 833.037 72.8886 836.492 79.4926C841.518 72.5741 849.372 68.8004 857.853 69.4293C871.047 69.4293 881.414 80.1216 881.1 93.3296L882.356 124.463ZM930.419 82.9519C921.309 82.9519 911.257 87.3546 911.257 100.877C911.257 114.4 921.309 118.802 930.419 118.802C939.843 119.117 947.696 111.884 948.325 102.449C948.325 101.821 948.325 101.192 948.325 100.877C948.325 99.6192 948.325 98.3613 948.011 97.4178C947.696 96.1599 947.382 95.2165 947.068 93.9586C946.754 92.7007 946.126 91.7572 945.497 90.8138C944.869 89.8704 944.241 88.9269 943.298 87.9835C942.356 87.0401 941.414 86.4111 940.471 85.7822C939.529 85.1532 938.272 84.5242 937.33 84.2098C936.073 83.8953 935.131 83.5808 933.874 83.2663C932.932 82.9519 931.675 82.9519 930.419 82.9519ZM931.675 131.696C927.906 132.01 924.136 131.067 920.367 129.495C916.911 127.922 913.77 125.721 911.257 122.576V123.519C910.942 127.293 907.801 130.124 904.031 129.809C900.576 129.495 898.063 126.979 897.749 123.519V50.5607C897.749 49.6172 898.063 48.9883 898.377 48.0448C898.691 47.1014 899.319 46.4725 899.948 45.8435C900.576 45.2145 901.204 44.5856 902.147 44.2711C903.089 43.9566 903.717 43.6422 904.66 43.6422C905.602 43.6422 906.23 43.9566 907.173 44.2711C908.115 44.5856 908.744 45.2145 909.372 45.8435C910 46.4725 910.628 47.1014 910.942 48.0448C911.257 48.9883 911.571 49.6172 911.571 50.5607V78.2347C914.084 75.4044 917.225 72.8886 920.681 71.3162C924.136 69.7438 927.906 69.1148 931.99 69.1148C947.382 69.1148 960.89 81.6939 960.89 100.248C960.89 118.802 947.382 131.696 931.675 131.696ZM985.079 113.142C985.079 117.23 987.906 119.117 992.618 119.117C993.246 119.117 994.189 119.117 994.817 119.117C997.958 118.802 1000.47 121.004 1001.1 123.834C1001.73 126.664 1000.16 129.495 997.33 130.438C995.131 131.381 992.618 131.696 990.419 131.696C980.681 131.696 971.885 124.463 971.885 115.029V50.5607C971.885 49.6172 972.199 48.9883 972.513 48.0448C972.827 47.1014 973.456 46.4725 974.084 45.8435C974.712 45.2145 975.34 44.5856 976.283 44.2711C977.225 43.9566 977.853 43.6422 978.796 43.6422C980.681 43.6422 982.251 44.5856 983.508 45.8435C984.136 46.4725 984.764 47.1014 985.079 48.0448C985.393 48.9883 985.707 49.6172 985.707 50.5607L985.079 113.142ZM1055.45 94.2731C1053.56 84.5243 1047.59 81.065 1038.8 81.065C1030 81.065 1022.77 84.8387 1020.89 94.2731H1055.45ZM1020.89 105.594C1022.15 116.601 1029.69 119.431 1038.17 119.431C1043.82 119.431 1048.85 120.06 1052.93 114.085C1055.13 111.569 1058.59 110.626 1061.73 112.198C1064.87 114.085 1065.5 118.173 1063.61 121.318C1063.3 121.633 1063.3 121.947 1062.98 122.262C1057.33 129.809 1048.53 132.01 1038.48 132.01C1022.46 132.01 1007.7 121.004 1007.7 102.135C1007.7 83.2663 1018.06 68.4859 1038.8 68.4859C1057.64 68.4859 1068.01 81.3795 1068.01 100.248V100.877C1068.01 102.764 1066.75 105.28 1064.87 105.28L1020.89 105.594Z" fill="#A0AEC0"/>
<path d="M1577.02 55.0801C1560.48 55.0801 1554.62 68.377 1554.21 69.351C1552.23 65.0055 1549.02 61.3366 1544.96 58.7996C1540.91 56.2626 1536.2 54.9693 1531.42 55.0801C1524.65 55.1839 1518.19 57.967 1513.47 62.818C1508.7 67.7179 1506.03 74.271 1506 81.1003C1506 109.134 1532.5 131.855 1554.21 131.855C1575.92 131.855 1602.43 109.134 1602.43 81.1003C1602.4 74.2723 1599.72 67.7207 1594.96 62.8219C1590.24 57.9737 1583.79 55.1908 1577.02 55.0839L1577.02 55.0801ZM1581.38 82.1705C1581.38 89.485 1578.51 96.4991 1573.42 101.669C1570.92 104.222 1567.93 106.252 1564.63 107.639C1561.33 109.027 1557.79 109.744 1554.21 109.75C1550.63 109.744 1547.09 109.027 1543.79 107.639C1540.49 106.252 1537.51 104.222 1535 101.669C1529.89 96.4606 1527.04 89.459 1527.05 82.1705V81.3813H1536.65V82.1705C1536.64 86.8856 1538.49 91.4156 1541.79 94.786C1543.41 96.4368 1545.35 97.749 1547.48 98.646C1549.61 99.5429 1551.9 100.007 1554.22 100.01C1556.53 100.007 1558.82 99.5429 1560.96 98.646C1563.09 97.749 1565.02 96.4368 1566.64 94.786C1569.95 91.4166 1571.8 86.8866 1571.79 82.1705V81.3813H1581.4L1581.37 82.1705H1581.38ZM2007.35 55.107C1985.01 55.107 1968.7 71.476 1968.7 93.558C1968.7 115.636 1985.03 132.013 2007.35 132.013C2029.68 132.013 2046 115.644 2046 93.5541C2046 71.0872 2029.68 55.1109 2007.35 55.1109V55.107ZM2007.35 116.433C1995.11 116.433 1986.76 106.97 1986.76 93.558C1986.76 80.1417 1995.11 70.6907 2007.35 70.6907C2019.59 70.6907 2027.94 80.1533 2027.94 93.558C2027.94 106.959 2019.58 116.437 2007.35 116.437V116.433ZM1921.53 55.107C1899.19 55.107 1882.88 71.476 1882.88 93.558C1882.88 115.636 1899.2 132.013 1921.53 132.013C1943.85 132.013 1960.19 115.644 1960.19 93.5541C1960.16 71.0872 1943.84 55.1109 1921.53 55.1109V55.107ZM1921.53 116.433C1909.29 116.433 1900.94 106.97 1900.94 93.558C1900.94 80.1417 1909.29 70.6907 1921.53 70.6907C1933.76 70.6907 1942.11 80.1533 1942.11 93.558C1942.11 106.959 1933.74 116.437 1921.53 116.437V116.433ZM1670.77 55.107C1658.72 55.107 1649.78 60.4312 1644.54 69.505V35H1628.22V91.5908C1628.22 115.644 1642.2 132.013 1666.28 132.013C1686.09 132.013 1704.54 117.615 1704.54 93.1691C1704.52 72.4615 1692.32 55.1109 1670.77 55.1109V55.107ZM1666.11 115.644C1652.9 115.644 1645.33 105.985 1645.33 93.558C1645.33 80.9425 1652.7 70.6907 1665.91 70.6907C1678.54 70.6907 1686.5 80.9425 1686.5 93.558C1686.5 105.985 1679.31 115.648 1666.11 115.648V115.644ZM1751.36 55.1109C1731.55 55.1109 1713.1 69.5088 1713.1 93.9545C1713.1 114.662 1725.33 131.974 1746.9 131.974C1758.94 131.974 1767.87 126.65 1773.11 117.576V131.224H1789.44V95.5367C1789.43 71.476 1775.45 55.1109 1751.37 55.1109H1751.36ZM1751.36 116.437C1738.35 116.437 1731.2 106.57 1731.2 93.9545C1731.2 81.5353 1738.39 71.476 1751.6 71.476C1764.8 71.476 1772.37 81.1388 1772.37 93.558C1772.34 106.181 1764.57 116.437 1751.36 116.437ZM1857.99 35V69.5088C1852.75 60.4312 1843.82 55.1109 1831.77 55.1109C1810.21 55.1109 1797.97 72.4615 1797.97 93.1268C1797.97 117.977 1815.26 131.97 1835.42 131.97C1859.51 131.97 1874.26 115.609 1874.26 91.5484V35.0115L1857.99 35ZM1836.43 115.644C1823.23 115.644 1816.04 105.985 1816.04 93.558C1816.04 80.9425 1824.01 70.6907 1836.62 70.6907C1849.84 70.6907 1857.21 80.7461 1857.21 93.558C1857.19 105.985 1849.63 115.648 1836.43 115.648V115.644Z" fill="#A0AEC0"/>
<path fill-rule="evenodd" clip-rule="evenodd" d="M2348.75 85.2122C2345.8 85.2122 2343.19 86.3959 2341.71 88.2314L2338.53 109.661C2339.66 109.987 2341.03 110.093 2342.96 110.093C2350.11 110.093 2355.57 105.352 2355.57 94.5854C2355.57 87.7957 2353.52 85.2122 2348.75 85.2122ZM2153.91 85.2122C2147.04 85.2122 2143.22 91.8613 2143.22 100.761C2143.22 107.197 2145.13 110.093 2150.65 110.093C2156.83 110.093 2161.57 104.408 2161.57 94.6506C2161.57 88.324 2159.76 85.2122 2153.91 85.2122H2153.91ZM2413.25 100.236C2413.25 106.947 2415.78 108.779 2419.95 108.779C2422.38 108.779 2424.57 107.918 2426.11 106.295L2428.98 84.6598C2427.54 84.0079 2426.11 83.9016 2424.35 83.9016C2417.64 83.9016 2413.25 89.5283 2413.25 100.236Z" fill="#A0AEC0"/>
<path fill-rule="evenodd" clip-rule="evenodd" d="M2435.32 120.063C2431.15 120.063 2428.3 118.31 2428.3 113.706C2428.3 113.486 2428.41 112.505 2428.51 111.949C2425.88 117.871 2420.28 119.957 2414.47 119.957C2404.25 119.957 2398.32 115.463 2398.32 102.851C2398.32 83.8811 2408.53 74.0138 2421.16 74.0138C2425.88 74.0138 2428.84 74.6691 2430.71 76.0964L2432.79 60.8563C2433.67 53.9499 2435.98 52.303 2441.47 52.303C2444.54 52.303 2447.61 53.0715 2449.48 54.4988L2443.11 100.329C2442.57 104.172 2442.45 106.144 2442.45 107.462C2442.45 108.556 2442.78 109.325 2444.43 109.325C2445.42 109.325 2447.17 109.212 2448.38 108.886C2449.59 109.874 2450.03 110.965 2450.03 112.615C2450.03 117.658 2444.43 120.067 2435.32 120.067V120.063ZM2382.3 119.957C2376.92 119.957 2373.73 117.871 2373.73 113.157C2373.73 111.294 2374.06 108.223 2374.39 105.921L2378.12 84.5398L2373.07 84.6496C2372.19 83.5517 2371.97 82.1279 2371.97 80.7041C2371.97 75.8802 2376.25 74.1202 2386.02 74.1202C2393.27 74.1202 2394.8 76.2027 2394.15 80.7006L2391.62 97.8072C2390.85 102.851 2390.08 106.36 2390.08 107.784C2390.08 108.553 2390.42 109.321 2391.73 109.321C2392.72 109.321 2394.47 109.208 2395.79 108.882C2397 109.76 2397.55 111.074 2397.55 112.502C2397.55 117.655 2392.94 119.957 2382.3 119.957ZM2391.95 52.5226C2397.11 52.5226 2399.41 55.4835 2399.41 59.5422C2399.41 64.3627 2396.01 67.6563 2390.3 67.6563C2386.24 67.6563 2382.62 66.2256 2382.62 60.8563C2382.62 56.1388 2386.14 52.5192 2391.95 52.5192L2391.95 52.5226ZM2341.84 119.405C2340.63 119.405 2338.44 119.405 2337.45 119.298L2334.59 140.786C2332.51 141.555 2329.1 141.661 2326.8 141.661C2321.97 141.661 2319.66 139.692 2319.66 135.523C2319.66 134.315 2319.99 132.233 2320.43 129.272L2326.36 84.533L2321.32 84.6462C2320.54 83.5483 2320.32 82.1245 2320.32 80.7006C2320.32 75.8768 2324.61 74.1167 2334.37 74.1167C2340.74 74.1167 2342.5 75.544 2341.95 79.167L2341.29 83.2224C2344.26 75.544 2349.41 73.9006 2355.12 73.9006C2365.77 73.9006 2370.49 80.2581 2370.49 92.105C2370.49 109.318 2359.29 119.405 2341.84 119.405ZM2305.29 120.06C2299.91 120.06 2297.61 118.413 2298.37 113.263L2298.7 111.071C2295.52 116.883 2290.8 119.954 2281.69 119.954C2273.89 119.954 2269.5 116.773 2269.5 109.647C2269.5 106.577 2269.73 104.604 2270.71 99.4506L2273.46 84.5364L2268.41 84.6462C2267.53 83.5483 2267.31 82.1245 2267.31 80.7006C2267.31 75.8768 2271.59 74.1167 2281.36 74.1167C2288.6 74.1167 2290.25 76.1993 2289.48 80.6972L2286.74 97.8037C2286.19 100.874 2285.64 104.494 2285.64 106.357C2285.64 108.549 2286.85 109.318 2289.81 109.318C2292.88 109.318 2296.18 107.894 2298.26 104.494L2301.23 82.5636C2302.11 75.6538 2303.75 73.9006 2309.24 73.9006C2312.31 73.9006 2315.83 74.6657 2317.69 76.0929L2314.18 102.188C2313.96 104.051 2313.63 106.028 2313.63 107.894C2313.63 108.659 2314.07 109.318 2315.39 109.318C2316.37 109.318 2317.91 109.205 2319.23 108.879C2320.44 109.757 2320.98 111.184 2320.98 112.608C2320.98 117.754 2315.93 120.06 2305.29 120.06ZM2263.36 85.8539C2260.84 85.0853 2258.2 84.6462 2254.14 84.6462C2246.24 84.6462 2241.74 89.2505 2241.74 99.1212C2241.74 106.357 2243.93 108.988 2249.75 108.988C2253.04 108.988 2256.88 108.22 2261.06 106.686C2262.6 107.455 2263.36 109.647 2263.36 111.291C2263.36 116.883 2258.31 120.177 2245.91 120.177C2232.63 120.177 2225.49 114.8 2225.49 100.874C2225.49 83.5483 2236.03 73.7908 2252.61 73.7908C2263.03 73.7908 2265.56 76.9712 2265.56 81.1364C2265.56 83.4385 2264.79 84.756 2263.36 85.8504V85.8539ZM2210.04 119.954C2205.76 119.954 2204.22 118.417 2201.91 113.483L2194.56 98.459L2191.81 119.075C2189.73 119.844 2186.33 119.954 2184.02 119.954C2179.19 119.954 2177 117.981 2177 113.812C2177 112.608 2177.21 110.526 2177.65 107.565L2183.8 60.8528C2184.68 53.9464 2186.99 52.2996 2192.48 52.2996C2195.55 52.2996 2198.62 53.0681 2200.49 54.4954L2195.33 93.0931C2208.39 74.9985 2209.6 73.9006 2216.18 73.9006C2223.1 73.9006 2225.52 75.8768 2225.52 79.8223C2225.52 82.121 2224.86 83.6581 2223.76 84.8658C2222.11 84.756 2220.46 84.756 2219.15 84.756C2216.84 84.756 2215.53 85.3049 2209.05 94.1841L2216.51 107.671C2217.06 108.549 2217.61 109.318 2218.82 109.318C2219.81 109.318 2221.46 109.205 2222.77 108.879C2223.87 109.647 2224.31 111.184 2224.31 112.608C2224.31 117.754 2219.15 119.95 2210.04 119.95V119.954ZM2148.15 120.173C2135.64 120.173 2127.4 114.684 2127.4 100.765C2127.4 84.5364 2137.28 73.6776 2154.3 73.6776C2170.21 73.6776 2175.81 81.5755 2175.81 93.3092C2175.81 109.867 2165.72 120.173 2148.15 120.173ZM2454.84 100.912L2453.51 99.8245L2460.44 49.9734L2455.67 46.3229C2450.76 42.5592 2444.61 42 2441.38 42C2430.32 42 2423.96 47.9046 2422.47 59.556L2421.9 63.7142C2417.25 63.6074 2412.63 64.5282 2408.37 66.4109C2409.18 64.3146 2409.64 62.0125 2409.64 59.5422C2409.64 49.3421 2402.33 42.2161 2391.86 42.2161C2380.67 42.2161 2372.22 50.2308 2372.22 60.8563C2372.22 62.5031 2372.4 64.0539 2372.76 65.512C2371.48 65.9448 2370.26 66.5203 2369.11 67.2275C2365.25 64.8704 2360.53 63.5976 2355.03 63.5976C2350.83 63.5976 2347.32 64.3455 2344.38 65.5841C2341.09 64.0745 2337.42 63.8137 2334.28 63.8137C2328.16 63.8137 2323.79 64.4484 2320.28 65.8311C2315.92 63.8755 2311.27 63.601 2309.15 63.601C2302.67 63.601 2298.53 65.7831 2295.87 68.6719C2291.62 64.3386 2285.56 63.8137 2281.27 63.8137C2274.67 63.8137 2270.09 64.5445 2266.45 66.1639C2263.11 64.5514 2258.62 63.4878 2252.51 63.4878C2244.38 63.4878 2237.3 65.3954 2231.53 68.8503C2228.69 65.9134 2223.96 63.601 2216.09 63.601C2213.6 63.601 2211.44 63.824 2209.49 64.3352L2211.42 49.9528L2206.68 46.3229C2201.76 42.5592 2195.61 42 2192.38 42C2181.33 42 2174.96 47.9046 2173.48 59.556L2172.43 67.4573C2167.54 64.795 2161.44 63.3746 2154.21 63.3746C2131.95 63.378 2117 78.4054 2117 100.775C2117 119.374 2128.61 130.487 2148.06 130.487C2156.73 130.487 2164.24 128.425 2170.25 124.654C2173.26 128.222 2178.01 130.264 2183.93 130.264C2188.88 130.264 2192.49 129.783 2195.3 128.747L2199.45 127.22C2202.04 129.09 2205.4 130.264 2209.95 130.264C2218.19 130.264 2223.7 128.558 2227.37 126.146C2232.2 129.004 2238.38 130.487 2245.82 130.487C2254.02 130.487 2260.61 128.353 2265.52 125.062C2269.09 128.212 2274.31 130.264 2281.6 130.264C2286.61 130.264 2290.99 129.492 2294.79 127.92C2298.89 130.373 2303.43 130.373 2305.2 130.373C2306.83 130.373 2308.34 130.298 2309.78 130.188C2309.46 132.377 2309.25 134.024 2309.25 135.53C2309.25 143.716 2314.66 151.46 2326.71 151.974C2335.76 152.359 2343.91 148.3 2343.91 148.3L2346.41 129.509C2354.03 128.812 2360.68 126.393 2366.05 122.578C2368.94 127.039 2374.22 130.264 2382.21 130.264C2389.28 130.264 2394.42 129.358 2398.38 127.416C2398.8 127.203 2399.18 126.956 2399.57 126.73C2403.58 129.032 2408.53 130.264 2414.38 130.264C2418.56 130.264 2422.4 129.509 2425.77 128.071C2428.41 129.557 2431.61 130.373 2435.23 130.373C2458.46 130.373 2460.26 116.777 2460.26 112.615C2460.26 106.618 2457.31 102.943 2454.84 100.916V100.912Z" fill="#A0AEC0"/>
<path d="M1223.64 86.4735C1222 87.3876 1220.3 88.1817 1218.56 88.8502C1214.79 90.2454 1210.9 90.9683 1206.92 91.2386C1206.06 91.2949 1205.19 91.3557 1204.33 91.3717C1203.89 91.3717 1203.73 91.5479 1203.77 91.9759C1203.78 92.1913 1203.77 92.4097 1203.77 92.6251V130.179C1203.77 131.243 1203.77 131.245 1202.74 131.245C1198.34 131.245 1193.94 131.229 1189.54 131.262C1188.82 131.262 1188.64 131.048 1188.64 130.325C1188.66 117.712 1188.67 105.098 1188.66 92.4833C1188.66 91.4583 1188.66 91.4511 1187.65 91.4554C1181.03 91.4902 1174.41 91.3514 1167.8 91.5379C1165.55 91.5911 1163.32 92.0273 1161.21 92.8289C1157.05 94.438 1154.8 97.6648 1153.8 102.001C1153.28 104.289 1153.15 106.618 1153.14 108.952C1153.11 116.053 1153.13 123.154 1153.13 130.256C1153.13 131.242 1153.13 131.245 1152.17 131.245C1147.75 131.245 1143.32 131.23 1138.91 131.262C1138.19 131.262 1138 131.042 1138 130.319C1138.02 100.324 1138.02 70.3297 1138.02 40.3349C1138.02 39.3778 1138.02 39.3662 1138.95 39.3662C1143.37 39.3662 1147.79 39.3662 1152.21 39.3662C1153.13 39.3662 1153.13 39.3749 1153.13 40.3435C1153.13 53.7531 1153.13 67.1616 1153.13 80.5692V81.4077C1153.4 81.5638 1153.51 81.3542 1153.65 81.253C1157.6 78.3615 1162.03 76.7395 1166.79 75.9833C1169.46 75.5612 1172.13 75.4311 1174.82 75.434C1179.1 75.4408 1183.38 75.4408 1187.66 75.434C1188.67 75.434 1188.67 75.434 1188.67 74.422V40.4852C1188.67 39.3677 1188.67 39.3648 1189.72 39.3648C1194.09 39.3648 1198.47 39.3648 1202.84 39.3648C1203.77 39.3648 1203.77 39.3648 1203.77 40.3276V74.4147C1203.77 75.434 1203.77 75.4427 1204.76 75.4267C1207.59 75.3993 1210.41 75.4673 1213.24 75.1492C1219.12 74.4885 1223.37 71.4843 1225.96 66.0195C1226.3 65.2966 1226.6 65.2373 1227.28 65.5135C1230.87 66.9664 1234.48 68.3745 1238.09 69.7696C1238.64 69.9836 1238.88 70.2439 1238.88 70.8988C1238.86 90.7109 1238.86 110.522 1238.88 130.334C1238.88 131.08 1238.66 131.259 1237.97 131.255C1233.55 131.224 1229.12 131.24 1224.7 131.239C1223.76 131.239 1223.76 131.239 1223.76 130.227C1223.76 115.976 1223.76 101.725 1223.76 87.474C1223.76 87.179 1223.83 86.8624 1223.64 86.4735Z" fill="#A0AEC0"/>
<path d="M1372.06 126.034C1371.85 125.981 1371.75 126.135 1371.63 126.235C1367.11 129.932 1361.95 131.969 1356.19 132.421C1350.11 132.9 1344.25 131.981 1338.73 129.229C1330.89 125.314 1325.95 118.852 1323.44 110.341C1322.01 105.478 1321.63 100.493 1321.99 95.427C1322.39 89.8002 1323.76 84.4786 1326.59 79.6195C1330.97 72.1234 1337.45 67.6533 1345.67 65.7406C1348.5 65.0809 1351.4 64.7928 1354.3 64.8833C1361.63 65.1088 1368.04 67.6736 1373.4 72.881C1373.53 73.0126 1373.67 73.1354 1373.86 73.3147C1374.2 72.4849 1374.2 71.642 1374.35 70.8354C1374.58 69.5125 1374.77 68.181 1374.95 66.848C1375.03 66.2698 1375.23 65.9951 1375.88 66.0008C1379.48 66.0384 1383.08 66.0326 1386.69 66.0008C1387.33 66.0008 1387.54 66.1816 1387.54 66.851C1387.55 89.1887 1387.68 111.524 1387.58 133.863C1387.55 143.346 1384.07 151.391 1376.88 157.528C1372.95 160.883 1368.37 162.9 1363.4 163.944C1356.57 165.377 1349.73 165.49 1343.01 163.42C1333.86 160.609 1327.18 154.771 1323.11 145.836C1322.78 145.091 1322.51 144.317 1322.32 143.523C1322.22 143.131 1322.32 142.913 1322.74 142.8C1326.95 141.61 1331.16 140.405 1335.36 139.186C1335.7 139.088 1335.88 139.142 1335.98 139.515C1337.29 144.209 1340.41 147.227 1344.59 149.192C1347.8 150.703 1351.21 151.095 1354.72 150.857C1357.76 150.652 1360.71 150.103 1363.47 148.752C1368.86 146.115 1371.87 141.759 1372.14 135.577C1372.27 132.573 1372.18 129.56 1372.19 126.552C1372.17 126.388 1372.22 126.18 1372.06 126.034ZM1372.56 98.132C1372.6 97.0621 1372.44 95.4617 1372.11 93.8815C1370.92 88.1738 1367.97 83.8294 1362.75 81.3355C1358.96 79.5255 1354.95 79.2233 1350.88 79.9853C1345.33 81.0291 1341.14 84.1041 1338.74 89.42C1336.27 94.9051 1336.16 100.601 1338.06 106.281C1339.76 111.357 1343.15 114.837 1348.08 116.657C1351.08 117.766 1354.19 117.986 1357.34 117.593C1362.41 116.961 1366.53 114.63 1369.43 110.24C1371.72 106.766 1372.56 102.841 1372.56 98.1377L1372.56 98.132Z" fill="#A0AEC0"/>
<path d="M1413.25 104.243C1413.58 105.852 1414.17 107.393 1415 108.801C1417.67 113.458 1421.68 116.195 1426.79 117.162C1431.7 118.093 1436.53 117.724 1441.11 115.528C1443.8 114.242 1446.01 112.275 1448.07 110.105C1448.26 109.903 1448.41 109.644 1448.74 109.536L1458.56 119.903C1458.73 119.977 1458.56 120.094 1458.44 120.228C1453.49 125.616 1447.67 129.5 1440.55 131.135C1436.07 132.155 1431.47 132.49 1426.9 132.126C1421.76 131.738 1416.92 130.315 1412.5 127.565C1405.5 123.212 1401.17 116.811 1399.06 108.749C1398.08 104.977 1397.67 101.074 1397.83 97.1734C1398.09 89.9969 1399.86 83.2945 1404.06 77.4495C1408.42 71.3919 1414.28 67.6344 1421.35 65.9227C1428.55 64.1879 1435.71 64.477 1442.69 67.0099C1452.86 70.6907 1459.18 78.0711 1461.84 88.7622C1463.04 93.5577 1463.34 98.434 1462.59 103.357C1462.48 104.051 1462.25 104.257 1461.57 104.256C1445.8 104.237 1430.04 104.232 1414.27 104.243H1413.25ZM1413.59 91.5424H1447.09C1447.21 91.3269 1447.12 91.1953 1447.07 91.0652C1445.51 86.5358 1442.68 83.1687 1438.42 81.1534C1434.93 79.5082 1431.26 79.1786 1427.51 79.6744C1423.27 80.2325 1419.65 82.0787 1416.84 85.4414C1415.35 87.2174 1414.24 89.2982 1413.59 91.5467V91.5424Z" fill="#A0AEC0"/>
<path d="M1268.55 72.7089C1269.02 72.2753 1269.49 71.8227 1269.98 71.3905C1273.84 67.9901 1278.23 65.6553 1283.29 65.0871C1290.81 64.2428 1297.46 66.3883 1302.9 71.9399C1307.07 76.2004 1309.33 81.4946 1310.44 87.3657C1310.97 90.1646 1311.09 92.9953 1311.09 95.8376C1311.09 107.245 1311.09 118.654 1311.09 130.064C1311.09 131.245 1311.09 131.246 1309.95 131.246H1296.89C1295.81 131.246 1295.81 131.246 1295.81 130.149C1295.81 118.86 1295.81 107.571 1295.81 96.2828C1295.81 93.6271 1295.64 90.9988 1294.9 88.434C1293.4 83.2671 1289.54 80.0923 1284.32 79.6542C1282.14 79.4721 1279.97 79.4836 1277.85 80.0185C1273.48 81.113 1270.86 84.0578 1269.58 88.3936C1268.82 90.9799 1268.67 93.6372 1268.67 96.3147C1268.67 107.532 1268.67 118.749 1268.67 129.964C1268.67 131.554 1268.61 131.239 1267.41 131.242C1263.08 131.255 1258.76 131.242 1254.43 131.242C1253.51 131.242 1253.51 131.242 1253.51 130.279C1253.51 109.194 1253.51 88.1087 1253.51 67.0244C1253.51 66.0268 1253.51 66.024 1254.46 66.024H1266.6C1267.65 66.024 1267.63 66.024 1267.74 67.0736C1267.93 68.8417 1268.13 70.6069 1268.33 72.3736C1268.33 72.4451 1268.35 72.5144 1268.39 72.5737C1268.43 72.633 1268.49 72.6798 1268.55 72.7089Z" fill="#A0AEC0"/>
<path d="M1222.91 47.3322C1222.93 42.1088 1226.99 37.977 1232.1 38.0001C1237.1 38.0218 1241.12 42.2476 1241.11 47.4522C1241.09 49.9364 1240.11 52.3123 1238.4 54.0571C1236.68 55.802 1234.36 56.7728 1231.95 56.7561C1229.53 56.7394 1227.23 55.7366 1225.53 53.9682C1223.84 52.1998 1222.9 49.8106 1222.91 47.3264V47.3322Z" fill="#A0AEC0"/>
</svg>
